<svg width="18" height="25" viewBox="0 0 18 25" fill="none" xmlns="http://www.w3.org/2000/svg">
<path d="M8.9102 0C5.63518 0 2.97267 2.66251 2.97267 5.93753C2.97267 9.15005 5.48518 11.7501 8.7602 11.8626C8.8602 11.8501 8.9602 11.8501 9.0352 11.8626C9.0602 11.8626 9.0727 11.8626 9.0977 11.8626C9.1102 11.8626 9.1102 11.8626 9.1227 11.8626C12.3227 11.7501 14.8352 9.15005 14.8477 5.93753C14.8477 2.66251 12.1852 0 8.9102 0Z" fill="#E9E9E9"/>
<path d="M15.2614 15.1875C11.7738 12.8624 6.08636 12.8624 2.57384 15.1875C0.986333 16.25 0.111328 17.6875 0.111328 19.225C0.111328 20.7625 0.986333 22.1875 2.56134 23.2375C4.31135 24.4125 6.61131 25 8.91132 25C11.2113 25 13.5113 24.4125 15.2614 23.2375C16.8364 22.175 17.7114 20.75 17.7114 19.2C17.6989 17.6625 16.8364 16.2375 15.2614 15.1875Z" fill="#E9E9E9"/>
</svg>
