<svg width="27" height="25" viewBox="0 0 27 25" fill="none" xmlns="http://www.w3.org/2000/svg">
<path d="M2.21307 0.0515898C1.68915 -0.12306 1.12284 0.160094 0.94819 0.684031C0.773553 1.20797 1.05671 1.77428 1.58063 1.94891L1.93384 2.06666C2.8357 2.36727 3.43196 2.56762 3.87122 2.77197C4.28716 2.96546 4.46699 3.12119 4.58222 3.28105C4.69744 3.44091 4.78831 3.66076 4.84033 4.11654C4.89529 4.59788 4.8968 5.2269 4.8968 6.17754V9.73993C4.89677 11.5633 4.89676 13.033 5.05217 14.189C5.21351 15.3891 5.55871 16.3996 6.36124 17.2021C7.16378 18.0047 8.17426 18.3499 9.37438 18.5112C10.5303 18.6666 12 18.6666 13.8234 18.6666H23.2298C23.7821 18.6666 24.2298 18.2189 24.2298 17.6667C24.2298 17.1143 23.7821 16.6667 23.2298 16.6667H13.8966C11.9828 16.6667 10.648 16.6646 9.64087 16.5291C8.66253 16.3976 8.14445 16.157 7.77543 15.788C7.46186 15.4744 7.24101 15.0531 7.10102 14.3334H20.5925C21.8718 14.3334 22.5114 14.3334 23.0123 14.003C23.5133 13.6727 23.7651 13.0849 24.2691 11.909L24.8404 10.5757C25.9197 8.05738 26.4595 6.79819 25.8667 5.89918C25.2739 5.00018 23.9039 5.00018 21.164 5.00018H6.89017C6.88231 4.58993 6.86508 4.21981 6.82739 3.88969C6.75359 3.24328 6.59279 2.65014 6.20467 2.11165C5.81654 1.57316 5.3047 1.23305 4.7148 0.958613C4.15982 0.700445 3.45408 0.465222 2.61892 0.186867L2.21307 0.0515898Z" fill="#E9E9E9"/>
<path d="M9.22978 20.9999C10.3343 20.9999 11.2297 21.8954 11.2297 22.9999C11.2297 24.1044 10.3343 24.9999 9.22978 24.9999C8.12523 24.9999 7.22982 24.1044 7.22982 22.9999C7.22982 21.8954 8.12523 20.9999 9.22978 20.9999Z" fill="#E9E9E9"/>
<path d="M21.2296 21.0001C22.3341 21.0001 23.2295 21.8954 23.2295 23C23.2295 24.1045 22.3341 25 21.2296 25C20.1251 25 19.2296 24.1045 19.2296 23C19.2296 21.8954 20.1251 21.0001 21.2296 21.0001Z" fill="#E9E9E9"/>
</svg>
