<svg width="39" height="25" viewBox="0 0 39 25" fill="none" xmlns="http://www.w3.org/2000/svg">
<path fill-rule="evenodd" clip-rule="evenodd" d="M0 1.63043C0 0.72997 0.72997 0 1.63043 0H36.413C37.3135 0 38.0435 0.72997 38.0435 1.63043C38.0435 2.5309 37.3135 3.26087 36.413 3.26087H1.63043C0.72997 3.26087 0 2.5309 0 1.63043Z" fill="#E9E9E9"/>
<path fill-rule="evenodd" clip-rule="evenodd" d="M0 12.5C0 11.5995 0.72997 10.8696 1.63043 10.8696H25.5435C26.4439 10.8696 27.1739 11.5995 27.1739 12.5C27.1739 13.4005 26.4439 14.1304 25.5435 14.1304H1.63043C0.72997 14.1304 0 13.4005 0 12.5Z" fill="#E9E9E9"/>
<path fill-rule="evenodd" clip-rule="evenodd" d="M0 23.3696C0 22.4691 0.72997 21.7391 1.63043 21.7391H12.5C13.4005 21.7391 14.1304 22.4691 14.1304 23.3696C14.1304 24.27 13.4005 25 12.5 25H1.63043C0.72997 25 0 24.27 0 23.3696Z" fill="#E9E9E9"/>
</svg>
