<svg width="408" height="73" viewBox="0 0 408 73" fill="none" xmlns="http://www.w3.org/2000/svg">
<path d="M73.552 37.0571H0V40.3692H73.552V37.0571Z" fill="#E9E9E9"/>
<path d="M108 37.0571H76.8862V40.3692H108V37.0571Z" fill="#2595A5"/>
<path d="M0 60.4829V57.1708H17.0806V60.4829H0Z" fill="#2595A5"/>
<path d="M41.7833 60.4829V57.1708H66.21L62.505 60.4829H41.7833Z" fill="#E9E9E9"/>
<path d="M76.9089 60.4829V57.1708H94.5217V60.4829H76.9089Z" fill="#2595A5"/>
<path d="M76.9089 67.1999V63.8878H87.8532V67.1999H76.9089Z" fill="#2595A5"/>
<path d="M0 67.2012V63.8891H17.0806V67.2012" fill="#E9E9E9"/>
<path d="M25.3322 43.7555H0V47.0676H25.3322V43.7555Z" fill="#E9E9E9"/>
<path d="M83.8294 43.7555H28.6665V47.0676H83.8294V43.7555Z" fill="#2595A5"/>
<path d="M107.999 43.7555H87.1663V47.0676H107.999V43.7555Z" fill="#E9E9E9"/>
<path d="M50.3977 50.4539H0V53.766H50.3977V50.4539Z" fill="#2595A5"/>
<path d="M108 50.4539H53.7319V53.766H108V50.4539Z" fill="#E9E9E9"/>
<path d="M76.8862 3.87781H68.1292L72.9638 7.18991H76.8862V3.87781Z" fill="#2595A5"/>
<path d="M108 3.87781H80.2205V7.18991H108V3.87781Z" fill="#E9E9E9"/>
<path d="M108 30.421H76.8862V33.7331H108V30.421Z" fill="#E9E9E9"/>
<path d="M101.264 23.7849H86.2794V27.097H101.264V23.7849Z" fill="#2595A5"/>
<path d="M82.9452 23.7849H76.8862V27.097H82.9452V23.7849Z" fill="#E9E9E9"/>
<path d="M106.333 23.7849H106.265C105.344 23.7849 104.598 24.5263 104.598 25.4409C104.598 26.3555 105.344 27.097 106.265 27.097H106.333C107.254 27.097 108 26.3555 108 25.4409C108 24.5263 107.254 23.7849 106.333 23.7849Z" fill="#E9E9E9"/>
<path d="M108 17.1501H76.8862V20.4622H108V17.1501Z" fill="#E9E9E9"/>
<path d="M90.7753 10.5139H76.8862V13.826H90.7753V10.5139Z" fill="#E9E9E9"/>
<path d="M107.999 10.5139H94.1096V13.826H107.999V10.5139Z" fill="#2595A5"/>
<path d="M54 26.3815C56.0882 26.3815 57.781 24.7 57.781 22.6256C57.781 20.5513 56.0882 18.8697 54 18.8697C51.9118 18.8697 50.219 20.5513 50.219 22.6256C50.219 24.7 51.9118 26.3815 54 26.3815Z" fill="#2595A5"/>
<path d="M54 33.6708C47.869 33.6708 42.881 28.7159 42.881 22.6256C42.881 16.5353 47.869 11.5804 54 11.5804C60.131 11.5804 65.119 16.5353 65.119 22.6256C65.119 28.7159 60.131 33.6708 54 33.6708ZM54 14.8938C49.7082 14.8938 46.2152 18.3623 46.2152 22.6269C46.2152 26.8916 49.7068 30.36 54 30.36C58.2932 30.36 61.7848 26.8916 61.7848 22.6269C61.7848 18.3623 58.2932 14.8938 54 14.8938Z" fill="#E9E9E9"/>
<path d="M73.552 33.6708H69.5509V13.9453L54 4.63959L38.4491 13.9453V33.6708H34.448V11.6997L54 0L73.552 11.6997V33.6708Z" fill="#E9E9E9"/>
<path d="M38.4491 73V57.1708H34.448V72.1309L38.4491 73Z" fill="#E9E9E9"/>
<path d="M41.7833 67.2012V63.8891L66.122 63.8878L69.5509 60.4829V57.1708H73.552V62.2092L68.8027 67.2462L41.7833 67.2012Z" fill="#E9E9E9"/>
<path d="M30.555 10.0701V33.6708H27.2207V8.84331" fill="#E9E9E9"/>
<path d="M30.555 71.2843V57.1708H27.2207V70.561L30.555 71.2843Z" fill="#E9E9E9"/>
<path d="M23.7491 7.52774V33.6708H20.4149V6.26384" fill="#2595A5"/>
<path d="M23.7491 69.8071V57.1708H20.4149V69.0825L23.7491 69.8071Z" fill="#2595A5"/>
<path d="M16.9446 4.94828V33.6708H13.6104V3.68438" fill="#E9E9E9"/>
<path d="M10.1388 10.1589V33.6708H6.80451V11.4214" fill="#2595A5"/>
<path d="M3.33424 22.0718C3.33424 21.1572 2.58784 20.4158 1.66712 20.4158C0.746395 20.4158 0 21.1572 0 22.0718C0 22.9864 0.746395 23.7279 1.66712 23.7279C2.58784 23.7279 3.33424 22.9864 3.33424 22.0718Z" fill="#E9E9E9"/>
<path d="M33.1877 7.15811C31.2111 7.15811 29.604 5.56168 29.604 3.59827C29.604 1.63485 31.2125 0.0384204 33.1877 0.0384204C35.1629 0.0384204 36.7713 1.63485 36.7713 3.59827C36.7713 5.56168 35.1642 7.15811 33.1877 7.15811ZM33.1877 1.6322C32.0954 1.6322 31.2071 2.51455 31.2071 3.59959C31.2071 4.68463 32.0954 5.56698 33.1877 5.56698C34.28 5.56698 35.1682 4.68463 35.1682 3.59959C35.1682 2.51455 34.28 1.6322 33.1877 1.6322Z" fill="#E9E9E9"/>
<path d="M102.928 67.2476C100.131 67.2476 97.8559 64.9874 97.8559 62.2092C97.8559 59.431 100.131 57.1708 102.928 57.1708C105.725 57.1708 108 59.431 108 62.2092C108 64.9874 105.725 67.2476 102.928 67.2476ZM102.928 59.2694C101.296 59.2694 99.9685 60.5876 99.9685 62.2092C99.9685 63.8308 101.296 65.149 102.928 65.149C104.56 65.149 105.887 63.8308 105.887 62.2092C105.887 60.5876 104.56 59.2694 102.928 59.2694Z" fill="#E9E9E9"/>
<path d="M92.8545 67.1999C93.7753 67.1999 94.5217 66.4584 94.5217 65.5438C94.5217 64.6292 93.7753 63.8878 92.8545 63.8878C91.9338 63.8878 91.1874 64.6292 91.1874 65.5438C91.1874 66.4584 91.9338 67.1999 92.8545 67.1999Z" fill="#E9E9E9"/>
<path d="M160.983 17.9961L157.897 24.2389C156.222 22.5529 153.531 21.7117 149.819 21.7117C146.299 21.7117 143.415 23.1972 141.164 26.1682C138.914 29.1393 137.79 32.9014 137.79 37.451C137.79 42.0006 138.832 45.6124 140.919 48.2828C143.006 50.9531 145.79 52.2919 149.271 52.2919C153.253 52.2919 156.368 50.8601 158.618 47.9928L162.11 54.0924C159.052 57.3641 154.572 59 148.667 59C142.761 59 138.174 57.0456 134.907 53.1331C131.636 49.2278 130 43.8942 130 37.136C130 30.8432 131.813 25.5812 135.436 21.3501C139.063 17.1191 143.703 15.0036 149.356 15.0036C154.203 15.0036 158.078 16.0023 160.983 17.9961Z" fill="#E9E9E9"/>
<path d="M192.833 58.2805L189.747 49.6538H175.265L172.322 58.2805H163.984L180.833 15.1503H184.122L201.114 58.2805H192.833ZM182.476 28.1621L177.399 43.8763H187.553L182.476 28.1621Z" fill="#E9E9E9"/>
<path d="M203.564 55.9252L206.334 49.1562C209.296 51.2467 212.207 52.2919 215.073 52.2919C219.479 52.2919 221.679 50.7419 221.679 47.6456C221.679 46.1923 221.16 44.8106 220.122 43.4933C219.084 42.176 216.943 40.7013 213.704 39.0654C210.462 37.4295 208.282 36.0836 207.155 35.0277C206.032 33.9717 205.164 32.7188 204.56 31.2655C203.955 29.8122 203.649 28.205 203.649 26.4439C203.649 23.1507 204.848 20.423 207.24 18.2538C209.633 16.0846 212.709 15 216.456 15C221.342 15 224.929 15.9199 227.215 17.7598L224.936 24.2639C222.302 22.3667 219.521 21.4182 216.599 21.4182C214.867 21.4182 213.527 21.8799 212.574 22.7963C211.621 23.7162 211.144 24.9118 211.144 26.383C211.144 28.8243 213.829 31.3586 219.194 33.9932C222.021 35.3856 224.058 36.6707 225.31 37.8412C226.561 39.0117 227.51 40.3791 228.165 41.9362C228.819 43.4933 229.146 45.233 229.146 47.1481C229.146 50.5952 227.795 53.4302 225.093 55.6567C222.391 57.8832 218.771 58.9964 214.231 58.9964C210.287 58.9964 206.728 57.9691 203.557 55.918L203.564 55.9252Z" fill="#E9E9E9"/>
<path d="M260.456 58.2805L257.37 49.6538H242.888L239.944 58.2805H231.606L248.453 15.1503H251.741L268.733 58.2805H260.452H260.456ZM250.099 28.1621L245.021 43.8763H255.176L250.099 28.1621Z" fill="#E9E9E9"/>
<path d="M279.446 58.8604H275.322L259.51 15.7302H267.763L277.544 44.4849L287.869 15.7302H295.947L279.446 58.8604Z" fill="#E9E9E9"/>
<path d="M301.938 58.2805V15.7302H309.441V58.2805H301.938Z" fill="#E9E9E9"/>
<path d="M315.24 55.9252L318.009 49.1562C320.971 51.2467 323.883 52.2919 326.749 52.2919C331.154 52.2919 333.355 50.7419 333.355 47.6456C333.355 46.1923 332.836 44.8106 331.798 43.4933C330.76 42.176 328.619 40.7013 325.38 39.0654C322.137 37.4295 319.958 36.0836 318.831 35.0277C317.707 33.9717 316.84 32.7188 316.235 31.2655C315.631 29.8122 315.325 28.205 315.325 26.4439C315.325 23.1507 316.523 20.423 318.916 18.2538C321.309 16.0846 324.385 15 328.132 15C333.017 15 336.605 15.9199 338.891 17.7598L336.612 24.2639C333.977 22.3667 331.197 21.4182 328.274 21.4182C326.543 21.4182 325.202 21.8799 324.249 22.7963C323.297 23.7162 322.82 24.9118 322.82 26.383C322.82 28.8243 325.505 31.3586 330.87 33.9932C333.696 35.3856 335.734 36.6707 336.985 37.8412C338.237 39.0117 339.186 40.3791 339.84 41.9362C340.495 43.4933 340.822 45.233 340.822 47.1481C340.822 50.5952 339.471 53.4302 336.768 55.6567C334.066 57.8832 330.447 58.9964 325.906 58.9964C321.963 58.9964 318.404 57.9691 315.233 55.918L315.24 55.9252Z" fill="#E9E9E9"/>
<path d="M365.433 22.4383V58.2769H357.931V22.4383H344.488V15.7302H379.481V22.4383H365.433Z" fill="#E9E9E9"/>
<path d="M399.723 58.2805L396.637 49.6538H382.155L379.211 58.2805H370.873L387.719 15.1503H391.008L408 58.2805H399.719H399.723ZM389.365 28.1621L384.288 43.8763H394.443L389.365 28.1621Z" fill="#E9E9E9"/>
</svg>
