<svg width="50" height="50" viewBox="0 0 50 50" fill="none" xmlns="http://www.w3.org/2000/svg">
<rect width="50" height="50" rx="25" fill="#E8E8E8"/>
<path d="M24.5586 10C20.6286 10 17.4336 13.195 17.4336 17.125C17.4336 20.9801 20.4486 24.1001 24.3786 24.2351C24.4986 24.2201 24.6186 24.2201 24.7086 24.2351C24.7386 24.2351 24.7536 24.2351 24.7836 24.2351C24.7986 24.2351 24.7986 24.2351 24.8136 24.2351C28.6537 24.1001 31.6687 20.9801 31.6837 17.125C31.6837 13.195 28.4887 10 24.5586 10Z" fill="#2E2E2E"/>
<path d="M32.18 28.2249C27.995 25.4349 21.17 25.4349 16.955 28.2249C15.05 29.4999 14 31.225 14 33.07C14 34.915 15.05 36.625 16.94 37.885C19.04 39.295 21.8 40 24.56 40C27.32 40 30.08 39.295 32.18 37.885C34.07 36.61 35.12 34.9 35.12 33.04C35.105 31.195 34.07 29.4849 32.18 28.2249Z" fill="#2E2E2E"/>
</svg>
