<svg width="35" height="28" viewBox="0 0 35 28" fill="none" xmlns="http://www.w3.org/2000/svg">
<path fill-rule="evenodd" clip-rule="evenodd" d="M4.37481 3.73423C4.43472 3.76891 4.49323 3.80751 4.54999 3.85008L15.4 11.9875C16.6445 12.9208 18.3555 12.9208 19.6 11.9875L30.45 3.85C30.5067 3.80744 30.5652 3.76886 30.6251 3.73419C30.3677 3.58525 30.0688 3.5 29.75 3.5H5.25C4.93117 3.5 4.63225 3.58526 4.37481 3.73423ZM31.5 7.4375L21.7 14.7875C19.2111 16.6541 15.789 16.6542 13.3 14.7875L3.5 7.43758V22.75C3.5 23.7165 4.2835 24.5 5.25 24.5H29.75C30.7165 24.5 31.5 23.7165 31.5 22.75V7.4375ZM0 5.25C0 2.35051 2.35051 0 5.25 0H29.75C32.6495 0 35 2.35051 35 5.25V22.75C35 25.6495 32.6495 28 29.75 28H5.25C2.35051 28 0 25.6495 0 22.75V5.25Z" fill="#E9E9E9"/>
</svg>
