<svg width="37" height="28" viewBox="0 0 37 28" fill="none" xmlns="http://www.w3.org/2000/svg">
<path fill-rule="evenodd" clip-rule="evenodd" d="M0.18271 13.4756C2.6352 5.66724 9.92904 0 18.5512 0C27.1732 0 34.4671 5.6673 36.9196 13.4756C37.0268 13.817 37.0268 14.183 36.9196 14.5244C34.4671 22.3327 27.1732 28 18.5512 28C9.92904 28 2.63516 22.3327 0.182708 14.5244C0.0754899 14.183 0.0754904 13.817 0.18271 13.4756ZM3.69683 14C5.85935 20.119 11.6958 24.5 18.5512 24.5C25.4064 24.5 31.2429 20.119 33.4055 14C31.2429 7.88103 25.4064 3.5 18.5512 3.5C11.6958 3.5 5.85938 7.88099 3.69683 14ZM18.5503 10.5C16.6174 10.5 15.0504 12.0669 15.0504 14C15.0504 15.9331 16.6174 17.5 18.5503 17.5C20.4834 17.5 22.0503 15.9331 22.0503 14C22.0503 12.0669 20.4834 10.5 18.5503 10.5ZM11.5504 14C11.5504 10.1339 14.6844 7 18.5503 7C22.4164 7 25.5503 10.1339 25.5503 14C25.5503 17.8661 22.4164 21 18.5503 21C14.6844 21 11.5504 17.8661 11.5504 14Z" fill="#E9E9E9"/>
</svg>
